<svg id="logotype_brandmark" data-name="logotype+brandmark" xmlns="http://www.w3.org/2000/svg" viewBox="0 0 555 246"><path d="M158.49631,86.0364v-83.5a1.5,1.5,0,0,0-1.5-1.5h-12a1.5,1.5,0,0,0-1.5,1.5v97a1.5,1.5,0,0,0,1.5,1.5h62a1.5,1.5,0,0,0,1.5-1.5v-12a1.5,1.5,0,0,0-1.5-1.5Z"/><rect x="239.95851" y="1.0364" width="75" height="15" rx="1.5"/><rect x="239.95851" y="86.0364" width="75" height="15" rx="1.5"/><rect x="239.95851" y="43.48098" width="75" height="15" rx="1.5"/><rect x="239.95116" y="143.59358" width="75" height="15" rx="1.5"/><rect x="239.95116" y="228.59358" width="75" height="15" rx="1.5"/><rect x="239.95116" y="186.0384" width="75" height="15" rx="1.5"/><rect x="538.45843" y="1.0364" width="15" height="100" rx="1.5"/><path d="M521.95843,43.55154h-38.5V2.5364a1.49991,1.49991,0,0,0-1.5-1.5h-12a1.50023,1.50023,0,0,0-1.5,1.5V43.55154h-13.5a1.50023,1.50023,0,0,0-1.5,1.5v12a1.50023,1.50023,0,0,0,1.5,1.5h13.5V99.5364a1.50023,1.50023,0,0,0,1.5,1.5h12a1.49991,1.49991,0,0,0,1.5-1.5V58.55154h38.5a1.49991,1.49991,0,0,0,1.5-1.5v-12A1.49991,1.49991,0,0,0,521.95843,43.55154Z"/><path d="M88.31976,58.48122h16.63867a1.5,1.5,0,0,0,1.5-1.5v-12a1.5,1.5,0,0,0-1.5-1.5H81.64154L63.27191,2.22292a2,2,0,0,0-1.8271-1.18652H46.472A2,2,0,0,0,44.645,2.22292L26.27582,43.48122H2.95843a1.5,1.5,0,0,0-1.5,1.5v12a1.5,1.5,0,0,0,1.5,1.5H19.5971L1.59,98.92613a1.50012,1.50012,0,0,0,1.37043,2.11027H16.3515a2.00008,2.00008,0,0,0,1.82717-1.18658L53.95843,19.48708,89.73819,99.84982a2.00011,2.00011,0,0,0,1.82718,1.18658h13.39137a1.5,1.5,0,0,0,1.37032-2.11011Z"/><path d="M428.7348,23.17385A36.25784,36.25784,0,0,0,395.33685,1.03664l-42.25-.00024a1.50023,1.50023,0,0,0-1.5,1.5v12a1.50008,1.50008,0,0,0,1.5,1.5h42.25a21.24327,21.24327,0,0,1,21.25,21.25v.00024a21.24308,21.24308,0,0,1-21.25,21.25l-42.25-.00024a1.50023,1.50023,0,0,0-1.5,1.5v39.5a1.50008,1.50008,0,0,0,1.5,1.5h12a1.49977,1.49977,0,0,0,1.5-1.5V73.53664l28.75-.00024a36.242,36.242,0,0,0,36.24951-36.24976l.00049-.00024A36.16745,36.16745,0,0,0,428.7348,23.17385Z"/><path d="M425.4287,200.117a36.125,36.125,0,0,0,6.19531-20.273l.00049-.00049a36.242,36.242,0,0,0-36.25-36.24951l-42.25-.00049a1.50038,1.50038,0,0,0-1.5,1.5v12a1.50007,1.50007,0,0,0,1.5,1.5h42.25a21.24361,21.24361,0,0,1,21.25,21.25v.00049a21.24361,21.24361,0,0,1-21.25,21.25l-42.25-.00049a1.50038,1.50038,0,0,0-1.5,1.5v39.5a1.50007,1.50007,0,0,0,1.5,1.5h12a1.49977,1.49977,0,0,0,1.5-1.5V216.09407l28.75-.00049a36.30608,36.30608,0,0,0,7.46875-.77588l12.19336,27.38623a1.49969,1.49969,0,0,0,1.37012.88965H430.123a1.49964,1.49964,0,0,0,1.37012-2.10986l-14.49853-32.56519A36.40208,36.40208,0,0,0,425.4287,200.117Z"/><path d="M206.989,143.59358h-72a1.5,1.5,0,0,0-1.5,1.5v12a1.5,1.5,0,0,0,1.5,1.5h51.20752l-19.91839,25.4169a1.30017,1.30017,0,0,0,1.02337,2.10214H182.4372a2.99985,2.99985,0,0,0,2.36118-1.14946l23.05179-29.41533a3.00042,3.00042,0,0,0,.63879-1.85074v-8.60351A1.5,1.5,0,0,0,206.989,143.59358Z"/><path d="M206.989,228.59358H150.60712l19.88853-25.379a1.30008,1.30008,0,0,0-1.02329-2.102H154.33661a3.00022,3.00022,0,0,0-2.36151,1.14965l-22.84747,29.15547a3,3,0,0,0-.63867,1.85044v8.8254a1.5,1.5,0,0,0,1.5,1.5h77a1.5,1.5,0,0,0,1.5-1.5v-12A1.5,1.5,0,0,0,206.989,228.59358Z"/><path d="M539.869,201.00165a1.50735,1.50735,0,0,0-1.47591,1.24824,40.28373,40.28373,0,0,1-1.87927,6.87017,32.02671,32.02671,0,0,1-11.72949,15.38379,31.56837,31.56837,0,0,1-18.105,5.46,32.56251,32.56251,0,0,1-12.66455-2.48413A30.41463,30.41463,0,0,1,479.881,215.31953a37.5021,37.5021,0,0,1-4.90242-13.07088,1.50511,1.50511,0,0,0-1.4727-1.247H461.33343a1.50008,1.50008,0,0,0-1.4911,1.7,55.99293,55.99293,0,0,0,2.95857,11.68871,46.02614,46.02614,0,0,0,43.87842,30.57324,47.57618,47.57618,0,0,0,18.4751-3.655,45.45882,45.45882,0,0,0,21.064-18.07275,53.12811,53.12811,0,0,0,7.30154-20.53264,1.501,1.501,0,0,0-1.49168-1.7015Z"/><path d="M473.4758,186.00165a1.5072,1.5072,0,0,0,1.47618-1.25082,40.27929,40.27929,0,0,1,1.89238-6.94351,32.02551,32.02551,0,0,1,11.72949-15.38379,31.56878,31.56878,0,0,1,18.10547-5.46,32.56633,32.56633,0,0,1,12.66406,2.48388,30.41742,30.41742,0,0,1,14.13379,12.16016,37.538,37.538,0,0,1,4.91682,13.14464,1.505,1.505,0,0,0,1.473,1.2494h12.16809a1.50033,1.50033,0,0,0,1.49151-1.69826,56.01292,56.01292,0,0,0-2.96935-11.76658,46.0255,46.0255,0,0,0-43.87793-30.573,47.57242,47.57242,0,0,0-18.47559,3.655,45.45683,45.45683,0,0,0-21.064,18.07251,53.15253,53.15253,0,0,0-7.31233,20.61058,1.50117,1.50117,0,0,0,1.492,1.69972Z"/></svg>